<svg xmlns="http://www.w3.org/2000/svg" width="1600" height="1100" viewBox="0 0 1600 1100" role="img" aria-labelledby="title desc">
  <title id="title">llm-wiki structure overview</title>
  <desc id="desc">Overview of llm-wiki workspace crates, data flow, support assets, and non-workspace directories.</desc>
  <defs>
    <style>
      .bg { fill: #f5f1e8; }
      .title { font: 700 34px "Helvetica Neue", Helvetica, Arial, sans-serif; fill: #1f2937; }
      .subtitle { font: 500 17px "Helvetica Neue", Helvetica, Arial, sans-serif; fill: #4b5563; }
      .section { font: 700 22px "Helvetica Neue", Helvetica, Arial, sans-serif; fill: #111827; }
      .label { font: 700 18px "Helvetica Neue", Helvetica, Arial, sans-serif; fill: #111827; }
      .body { font: 500 15px "Helvetica Neue", Helvetica, Arial, sans-serif; fill: #374151; }
      .small { font: 500 13px "Helvetica Neue", Helvetica, Arial, sans-serif; fill: #4b5563; }
      .box { stroke: #243b53; stroke-width: 2; rx: 18; ry: 18; }
      .line { stroke: #243b53; stroke-width: 3; fill: none; }
      .dash { stroke: #6b7280; stroke-width: 2; fill: none; stroke-dasharray: 8 8; }
    </style>
    <marker id="arrow" markerWidth="10" markerHeight="10" refX="9" refY="5" orient="auto-start-reverse">
      <path d="M 0 0 L 10 5 L 0 10 z" fill="#243b53"/>
    </marker>
  </defs>

  <rect class="bg" x="0" y="0" width="1600" height="1100"/>

  <text class="title" x="60" y="70">llm-wiki Structure</text>
  <text class="subtitle" x="60" y="104">IC canister-backed VFS wiki base. Source of truth is remote node storage under /Wiki and /Sources.</text>

  <rect class="box" x="60" y="150" width="300" height="360" fill="#dce8f5"/>
  <text class="section" x="82" y="186">Interface Layer</text>
  <rect class="box" x="82" y="210" width="256" height="90" fill="#ffffff"/>
  <text class="label" x="102" y="240">vfs_cli_app</text>
  <text class="body" x="102" y="265">human / agent CLI</text>
  <text class="small" x="102" y="288">pull, push, lint-local, status, mirror sync</text>
  <rect class="box" x="82" y="320" width="256" height="76" fill="#ffffff"/>
  <text class="label" x="102" y="350">vfs_cli_core</text>
  <text class="body" x="102" y="375">generic CLI core</text>
  <rect class="box" x="82" y="416" width="256" height="72" fill="#ffffff"/>
  <text class="label" x="102" y="446">vfs_client</text>
  <text class="body" x="102" y="471">ic-agent transport + candid RPC</text>

  <rect class="box" x="420" y="150" width="330" height="360" fill="#e7f4e4"/>
  <text class="section" x="442" y="186">Canister / Service</text>
  <rect class="box" x="442" y="210" width="286" height="96" fill="#ffffff"/>
  <text class="label" x="462" y="240">vfs_canister</text>
  <text class="body" x="462" y="265">IC query/update entrypoints</text>
  <text class="small" x="462" y="288">WASI mount, stable memory, migration bootstrap</text>
  <rect class="box" x="442" y="330" width="286" height="88" fill="#ffffff"/>
  <text class="label" x="462" y="360">vfs_runtime</text>
  <text class="body" x="462" y="385">VfsService boundary</text>
  <text class="small" x="462" y="408">thin orchestration around FsStore</text>
  <rect class="box" x="442" y="438" width="286" height="50" fill="#ffffff"/>
  <text class="label" x="462" y="470">wiki_domain</text>
  <text class="body" x="582" y="470">/Wiki and /Sources path policy</text>

  <rect class="box" x="810" y="150" width="360" height="360" fill="#fdecc8"/>
  <text class="section" x="832" y="186">Storage Core</text>
  <rect class="box" x="832" y="210" width="316" height="126" fill="#ffffff"/>
  <text class="label" x="852" y="240">vfs_store</text>
  <text class="body" x="852" y="265">SQLite source of truth</text>
  <text class="small" x="852" y="288">CRUD, append, edit, move, delete, glob, recent</text>
  <text class="small" x="852" y="311">FTS search, snapshot export, delta sync, etag</text>
  <rect class="box" x="832" y="356" width="316" height="72" fill="#ffffff"/>
  <text class="label" x="852" y="386">schema.rs</text>
  <text class="body" x="952" y="386">versioned migration, legacy reject</text>
  <rect class="box" x="832" y="448" width="316" height="40" fill="#ffffff"/>
  <text class="label" x="852" y="476">vfs_types</text>
  <text class="body" x="956" y="476">shared contracts for all layers</text>

  <rect class="box" x="1220" y="150" width="320" height="360" fill="#f8d8d8"/>
  <text class="section" x="1242" y="186">Support Surface</text>
  <rect class="box" x="1242" y="210" width="276" height="76" fill="#ffffff"/>
  <text class="label" x="1262" y="240">docs/validation</text>
  <text class="body" x="1262" y="265">correctness and benchmark contract</text>
  <rect class="box" x="1242" y="306" width="276" height="76" fill="#ffffff"/>
  <text class="label" x="1262" y="336">scripts/</text>
  <text class="body" x="1262" y="361">build, canbench, beam, env helpers</text>
  <rect class="box" x="1242" y="402" width="276" height="86" fill="#ffffff"/>
  <text class="label" x="1262" y="432">agent skills</text>
  <text class="body" x="1262" y="457">repo-local workflow skills</text>
  <text class="small" x="1262" y="480">kinic-wiki-ingest / lint / query</text>

  <path class="line" d="M 338 452 L 420 452" marker-end="url(#arrow)"/>
  <path class="line" d="M 750 452 L 810 452" marker-end="url(#arrow)"/>
  <path class="dash" d="M 585 438 L 585 305 L 810 305" marker-end="url(#arrow)"/>
  <path class="dash" d="M 990 510 L 990 560 L 1380 560 L 1380 510" marker-end="url(#arrow)"/>

  <rect class="box" x="60" y="580" width="1480" height="180" fill="#ffffff"/>
  <text class="section" x="82" y="618">Key Flows</text>
  <text class="label" x="100" y="658">Read / Write Path</text>
  <text class="body" x="280" y="658">agent or CLI → vfs_client → vfs_canister → VfsService → FsStore → SQLite/FTS</text>
  <text class="label" x="100" y="694">Sync Path</text>
  <text class="body" x="280" y="694">pull/push uses snapshot revision, change log, removed_paths, changed_nodes, and etag conflict control</text>
  <text class="label" x="100" y="730">Knowledge Policy</text>
  <text class="body" x="280" y="730">wiki note schema authority lives in docs/internal/WIKI_CANONICALITY.md, not in generic VFS crates</text>

  <rect class="box" x="60" y="800" width="720" height="230" fill="#e9eef7"/>
  <text class="section" x="82" y="838">Top-Level Repository Areas</text>
  <text class="body" x="100" y="874">README.md: public entry and quick start</text>
  <text class="body" x="100" y="904">crates/: runtime implementation core</text>
  <text class="body" x="100" y="934">docs/: internal policy and validation docs</text>
  <text class="body" x="100" y="964">fixtures/: mirror spec and beam samples</text>
  <text class="body" x="100" y="994">artifacts/: benchmark output and wiki backups</text>

  <rect class="box" x="820" y="800" width="720" height="230" fill="#f4e9dd"/>
  <text class="section" x="842" y="838">Not in Current Workspace Build</text>
  <text class="body" x="860" y="874">crates/wiki_agent_schema</text>
  <text class="body" x="860" y="904">crates/wiki_http_adapter</text>
  <text class="body" x="860" y="934">crates/wiki_runtime</text>
  <text class="body" x="860" y="964">crates/wiki_search</text>
  <text class="body" x="860" y="994">crates/wiki_types</text>
  <text class="small" x="1180" y="994">empty dirs only; safe to treat as inactive for current architecture reading</text>
</svg>
